@startuml
skinparam classAttributeIconSize 0
hide circle
hide methods

title US40 - DM

class Nurse {
}

class VaccinationCenter {
    - name
}

class WaitingRoom {
}

class CheckIn {
    - dateTime
}

class Appointment {
}

class SNSUser {
    - snsUserNumber
    - name
}

' Relacionamentos baseados no modelo global
Nurse "0..*" -- "1" VaccinationCenter : works at >
VaccinationCenter "1" -- "1" WaitingRoom : has >
WaitingRoom "1" -- "0..*" CheckIn : contains >
CheckIn "1" -- "1" Appointment : generated from >
Appointment "1" -- "1" SNSUser : for >

@enduml